<?xml version="1.0" standalone="no"?>
<!DOCTYPE svg PUBLIC "-//W3C//DTD SVG 20010904//EN"
 "http://www.w3.org/TR/2001/REC-SVG-20010904/DTD/svg10.dtd">
<svg version="1.0" xmlns="http://www.w3.org/2000/svg"
 width="1024.000000pt" height="1024.000000pt" viewBox="0 0 1024.000000 1024.000000"
 preserveAspectRatio="xMidYMid meet">
<metadata>
Created by potrace 1.14, written by Peter Selinger 2001-2017
</metadata>
<g transform="translate(0.000000,1024.000000) scale(0.100000,-0.100000)"
fill="#000000" stroke="none">
<path d="M5749 7514 c-352 -61 -692 -290 -807 -544 -34 -77 -65 -202 -68 -280
l-3 -75 -62 -37 c-60 -37 -66 -38 -158 -39 -53 0 -103 -2 -111 -3 -8 -2 -38
-6 -67 -10 -179 -21 -288 -130 -319 -316 -3 -19 -8 -204 -11 -410 -2 -206 -8
-378 -11 -382 -4 -3 -24 -10 -44 -13 l-38 -7 -1 63 c-1 81 -2 87 -32 153 -106
231 -314 361 -652 408 -52 7 -192 12 -330 12 -214 0 -250 -3 -330 -23 -89 -22
-148 -33 -172 -34 -7 0 -13 -5 -14 -11 -7 -81 29 -210 83 -298 62 -101 200
-283 241 -317 23 -20 44 -38 47 -42 10 -13 147 -97 207 -128 76 -38 185 -75
278 -94 89 -19 260 -15 335 8 74 23 226 102 248 129 27 35 36 36 91 15 29 -10
56 -17 60 -14 29 17 31 -43 33 -1166 3 -1118 3 -1145 23 -1193 46 -113 143
-182 269 -193 164 -13 293 69 341 217 17 51 18 130 20 1215 1 638 5 1189 9
1225 6 58 11 69 46 102 32 31 44 37 75 34 20 -2 44 -11 54 -20 10 -9 29 -16
43 -16 14 0 37 -9 50 -20 31 -24 176 -93 243 -115 210 -70 446 -61 715 26 166
55 290 125 374 213 165 173 224 251 251 327 18 51 29 146 17 153 -5 3 -31 8
-58 11 -121 15 -165 22 -339 55 -82 16 -161 32 -175 34 -14 3 -46 9 -71 14
-44 9 -424 8 -464 -1 -11 -3 -45 -8 -75 -12 -295 -38 -534 -223 -550 -425 l-5
-65 -64 1 c-39 1 -66 6 -71 14 -4 7 -6 130 -4 274 3 301 9 367 36 454 8 27 17
34 54 43 24 6 44 15 44 19 0 25 36 13 92 -29 60 -46 82 -57 125 -65 10 -2 37
-9 61 -15 43 -12 185 -16 232 -6 149 29 270 85 396 183 49 38 139 121 200 183
101 103 123 132 229 309 65 107 144 232 176 278 33 45 59 87 59 91 0 15 -117
88 -168 105 -97 33 -162 42 -362 51 -74 4 -137 8 -140 9 -3 2 -39 -3 -81 -10z"/>
<path d="M463 5905 c-187 -57 -296 -237 -259 -430 21 -109 106 -213 214 -262
47 -22 72 -26 142 -26 107 0 179 26 249 89 48 43 104 136 117 194 5 25 6 122
1 150 -21 114 -104 217 -214 267 -64 30 -184 38 -250 18z"/>
<path d="M8938 5915 c-2 -1 -27 -6 -56 -9 -188 -22 -391 -118 -520 -246 -198
-196 -251 -423 -127 -543 47 -45 99 -65 171 -62 104 3 171 52 238 173 87 158
201 222 398 222 265 0 426 -161 426 -425 0 -278 -162 -452 -428 -461 -122 -4
-164 -17 -215 -69 -90 -89 -89 -252 1 -337 47 -44 98 -59 208 -63 220 -8 375
-99 456 -269 87 -185 54 -446 -73 -576 -138 -141 -400 -179 -601 -87 -74 34
-130 88 -192 183 -82 127 -154 177 -256 176 -93 -1 -170 -48 -208 -127 -89
-184 98 -494 385 -637 266 -134 645 -149 932 -38 368 141 586 475 585 895 0
312 -159 622 -383 741 l-40 22 63 50 c200 159 302 389 293 657 -4 109 -10 149
-36 240 -89 299 -325 504 -659 571 -63 13 -352 28 -362 19z"/>
<path d="M2657 5004 c-1 -1 -31 -5 -66 -8 -161 -17 -336 -103 -435 -213 -16
-18 -33 -33 -36 -33 -4 0 -12 17 -18 39 -16 52 -84 126 -146 159 -45 23 -62
26 -151 27 -90 0 -105 -3 -153 -27 -90 -47 -152 -135 -167 -238 -12 -81 -8
-1740 4 -1793 27 -115 98 -195 204 -230 74 -25 198 -17 263 16 60 30 117 91
147 155 23 52 22 5 30 947 3 319 6 366 22 410 56 152 150 224 301 231 194 9
320 -86 365 -273 8 -33 12 -236 14 -643 2 -540 4 -600 20 -645 51 -145 172
-223 330 -213 131 9 218 69 274 188 l26 55 2 675 c2 766 0 785 -69 963 -98
250 -299 407 -567 443 -45 6 -189 12 -194 8z"/>
<path d="M6497 5004 c-1 -1 -33 -5 -72 -8 -116 -11 -146 -16 -245 -49 -443
-144 -663 -517 -663 -1127 -1 -439 124 -766 366 -960 131 -105 352 -190 538
-207 501 -44 878 130 1066 492 46 89 92 229 109 330 3 17 7 41 10 55 22 129
22 478 -1 590 -2 13 -7 42 -10 63 -13 84 -57 216 -105 312 -57 116 -128 206
-224 287 -92 77 -263 163 -362 182 -10 2 -37 9 -59 14 -55 14 -153 24 -258 26
-48 1 -89 1 -90 0z m185 -565 c138 -31 227 -148 263 -345 14 -82 15 -486 1
-549 -54 -239 -168 -346 -370 -347 -81 0 -118 8 -183 39 -104 51 -161 142
-199 318 -10 48 -14 435 -4 495 14 92 19 115 35 160 69 195 235 278 457 229z"/>
<path d="M451 4964 c-103 -37 -166 -105 -197 -209 -16 -55 -17 -133 -17 -920
0 -633 3 -875 12 -917 7 -32 28 -80 47 -110 64 -97 152 -139 282 -135 129 5
225 65 279 175 l28 57 3 900 c2 886 2 900 -18 961 -26 77 -84 146 -154 181
-66 33 -197 42 -265 17z"/>
</g>
</svg>
